<?xml version="1.0" encoding="UTF-8"?>
<svg xmlns="http://www.w3.org/2000/svg" xmlns:xlink="http://www.w3.org/1999/xlink" xmlns:svgjs="http://svgjs.com/svgjs" version="1.1" width="512" height="512" x="0" y="0" viewBox="0 0 512.003 512.003" style="enable-background:new 0 0 512 512" xml:space="preserve" class="">
  <g>
<g xmlns="http://www.w3.org/2000/svg">
	<g>
		<path d="M446.361,115.864l-28.848-10.015c-7.659-2.659-12.805-9.892-12.805-17.999v-5.722h2.263    c12.102,0,21.948-9.846,21.948-21.948V21.947C428.919,9.846,419.073,0,406.971,0H230.521c-12.101,0-21.947,9.846-21.947,21.947    v38.234c0,11.344,8.65,20.704,19.699,21.833v5.835c0,8.106-5.145,15.34-12.805,17.999l-28.848,10.015    c-13.671,4.746-22.857,17.659-22.857,32.131v10.565c-15.373-8.293-34.187-9.268-50.524-1.857    c-28.48,12.922-41.138,46.605-28.217,75.085l14.51,31.981c-13.214-0.002-26.206,4.587-36.53,13.255    c-23.95,20.112-27.073,55.958-6.96,79.909l44.567,53.074c0.001,0.001,0.002,0.003,0.003,0.004    c0.001,0.001,0.002,0.002,0.003,0.004l14.867,17.704c1.479,1.762,3.597,2.67,5.732,2.67c1.697,0,3.405-0.574,4.806-1.751    c3.164-2.657,3.574-7.375,0.918-10.538l-10.06-11.98l37.154-31.198c2.931,2.898,6.183,5.479,9.733,7.698v77.534    c-2.612-1.94-5.016-4.172-7.126-6.684l-10.316-12.284c-2.656-3.163-7.374-3.573-10.538-0.918    c-3.163,2.657-3.574,7.375-0.917,10.539l10.315,12.284c5.12,6.097,11.482,11.021,18.582,14.488v4.287    c0,16.617,13.52,30.136,30.136,30.136h245.183c16.616,0,30.136-13.519,30.136-30.136V147.996    C469.218,133.523,460.032,120.612,446.361,115.864z M107.258,394.663l-39.761-47.351c-7.172-8.542-10.59-19.366-9.621-30.478    c0.968-11.112,6.206-21.182,14.748-28.355c9.44-7.928,21.911-11.223,33.969-9.15l35.704,78.694    c0.787,1.734,1.661,3.409,2.598,5.034L107.258,394.663z M163.764,363.48c-3.216-3.362-5.863-7.271-7.844-11.637l-25.546-56.307    l33.39-15.149V363.48z M163.765,263.96l-39.572,17.954l-25.546-56.307c-9.513-20.969-0.193-45.767,20.774-55.28    c14.71-6.673,32.151-4.12,44.344,6.239V263.96z M223.534,60.181V21.947c0-3.853,3.135-6.987,6.987-6.987h176.449    c3.853,0,6.988,3.135,6.988,6.987v38.234c0,3.854-3.136,6.988-6.988,6.988h-2.263H230.521    C226.669,67.169,223.534,64.035,223.534,60.181z M454.259,481.864c0,8.369-6.808,15.176-15.176,15.176H193.9    c-8.369,0-15.176-6.808-15.176-15.176v-63.407h275.535V481.864z M454.259,403.498H178.724v-81.029h275.535V403.498z     M454.259,180.882H396.62c-4.132,0-7.48,3.349-7.48,7.48c0,4.131,3.348,7.48,7.48,7.48h57.639v111.666H178.724V195.843h187.693    c4.132,0,7.48-3.349,7.48-7.48c0-4.131-3.348-7.48-7.48-7.48H178.724v-32.888c0-8.107,5.146-15.341,12.804-18l28.848-10.015    c13.671-4.746,22.858-17.659,22.858-32.131v-5.722h146.515v5.721c0,14.472,9.186,27.384,22.858,32.131l28.848,10.015    c7.659,2.659,12.805,9.892,12.805,17.999V180.882z" fill="#21d7d9" data-original="#000000" style=""/>
	</g>
</g>
<g xmlns="http://www.w3.org/2000/svg">
	<g>
		<path d="M276.933,221.132c-9.699-9.698-25.48-9.699-35.177,0l-0.203,0.203l-0.143-0.143c-9.699-9.699-25.479-9.698-35.176,0    c-9.698,9.699-9.698,25.478,0,35.176l28.375,28.375c1.855,1.856,4.322,2.878,6.947,2.878c2.624,0,5.09-1.022,6.945-2.877    l28.432-28.437c4.698-4.697,7.286-10.945,7.286-17.589C284.218,232.076,281.63,225.83,276.933,221.132z M266.353,245.73    l-24.799,24.803l-24.742-24.742c-3.866-3.865-3.866-10.155,0-14.02c1.933-1.933,4.47-2.899,7.009-2.899    c2.538,0,5.077,0.966,7.009,2.898l3.777,3.778c1.855,1.854,4.321,2.875,6.944,2.875c2.625,0,5.091-1.022,6.946-2.877l3.836-3.836    c3.867-3.866,10.156-3.865,14.02,0h0.001c1.872,1.872,2.903,4.362,2.903,7.009C269.257,241.368,268.226,243.857,266.353,245.73z" fill="#21d7d9" data-original="#000000" style=""/>
	</g>
</g>
<g xmlns="http://www.w3.org/2000/svg">
	<g>
		<path d="M421.403,371.501H318.746c-4.132,0-7.48,3.349-7.48,7.48c0,4.131,3.348,7.48,7.48,7.48h102.658    c4.132,0,7.48-3.349,7.48-7.48C428.884,374.85,425.535,371.501,421.403,371.501z" fill="#21d7d9" data-original="#000000" style=""/>
	</g>
</g>
<g xmlns="http://www.w3.org/2000/svg">
	<g>
		<path d="M420.074,339.505h-26.306c-4.132,0-7.48,3.349-7.48,7.48c0,4.131,3.348,7.48,7.48,7.48h26.306    c4.132,0,7.48-3.349,7.48-7.48C427.553,342.854,424.206,339.505,420.074,339.505z" fill="#21d7d9" data-original="#000000" style=""/>
	</g>
</g>
<g xmlns="http://www.w3.org/2000/svg">
	<g>
		<path d="M353.317,33.585h-69.142c-4.132,0-7.48,3.349-7.48,7.48c0,4.131,3.348,7.48,7.48,7.48h69.142    c4.132,0,7.48-3.349,7.48-7.48C360.797,36.934,357.449,33.585,353.317,33.585z" fill="#21d7d9" data-original="#000000" style=""/>
	</g>
</g>















</g>
</svg>
